<?xml version="1.0" standalone="no"?>
<!DOCTYPE svg PUBLIC "-//W3C//DTD SVG 20010904//EN"
 "http://www.w3.org/TR/2001/REC-SVG-20010904/DTD/svg10.dtd">
<svg version="1.0" xmlns="http://www.w3.org/2000/svg"
 width="1024.000000pt" height="1024.000000pt" viewBox="0 0 1024.000000 1024.000000"
 preserveAspectRatio="xMidYMid meet">
<metadata>
Created by potrace 1.16, written by Peter Selinger 2001-2019
</metadata>
<g transform="translate(0.000000,1024.000000) scale(0.100000,-0.100000)"
fill="#000000" stroke="none">
<path d="M0 10226 c0 -10 26 -15 103 -20 56 -4 2300 -6 4987 -6 4803 1 5150 3
5150 32 0 4 -2304 8 -5120 8 -4317 0 -5120 -2 -5120 -14z"/>
<path d="M5388 9307 c-48 -7 -90 -15 -94 -19 -4 -5 -20 -8 -35 -8 -15 0 -40
-5 -56 -11 -69 -26 -223 -39 -455 -39 -220 1 -239 0 -277 -19 -26 -14 -59 -21
-95 -21 -37 0 -56 -4 -59 -14 -5 -13 -75 -39 -174 -65 -23 -7 -55 -22 -70 -35
-25 -21 -42 -24 -173 -31 -80 -4 -197 -8 -260 -7 -90 0 -105 -1 -70 -8 25 -5
83 -9 130 -9 l85 -1 -154 -75 c-169 -84 -336 -190 -363 -231 -4 -6 -38 -31
-75 -54 -38 -24 -90 -64 -118 -90 -27 -26 -85 -80 -128 -121 -43 -40 -80 -83
-83 -96 -4 -13 -10 -23 -15 -23 -5 0 -9 -5 -9 -10 0 -14 -22 -35 -90 -90 -132
-105 -324 -331 -336 -396 -3 -18 -25 -52 -49 -77 -24 -26 -46 -60 -50 -76 -7
-32 -20 -45 -44 -46 -7 0 -19 -18 -26 -40 -15 -53 -77 -167 -111 -208 -49 -58
-153 -298 -154 -355 0 -10 14 -13 55 -10 62 3 66 -4 43 -68 -8 -23 -9 -51 -2
-97 5 -36 7 -76 3 -91 -5 -19 -3 -26 7 -26 7 0 17 12 21 28 9 33 10 39 12 53
3 28 19 -7 24 -55 5 -53 33 -123 44 -112 3 3 1 11 -4 18 -12 15 -28 248 -18
248 4 0 21 -10 38 -22 21 -15 32 -18 35 -10 6 18 19 14 25 -7 2 -11 23 -29 46
-40 39 -20 41 -24 41 -66 0 -48 12 -58 30 -24 19 35 24 13 10 -50 -9 -43 -19
-65 -36 -76 -25 -16 -51 -67 -52 -104 -1 -12 -10 -41 -21 -64 -11 -22 -18 -43
-16 -45 9 -9 33 19 40 45 3 15 10 22 15 17 10 -11 15 -63 8 -84 -9 -24 -28
-134 -28 -158 0 -30 -18 -28 -30 4 -16 41 -27 20 -33 -63 -7 -103 -53 -205
-131 -287 -51 -54 -58 -58 -88 -52 -29 5 -35 2 -50 -24 -19 -34 -42 -39 -57
-12 -21 34 -34 -13 -35 -125 0 -13 -6 -23 -12 -23 -15 0 -44 27 -44 41 0 5 -4
9 -10 9 -5 0 -10 -13 -10 -30 0 -25 -7 -33 -43 -51 -66 -33 -74 -43 -46 -50
25 -6 26 -9 14 -46 -5 -20 -3 -23 19 -23 22 0 26 5 26 28 l1 27 19 -24 c11
-13 20 -32 20 -43 0 -32 25 -15 28 20 3 33 25 58 42 47 15 -9 12 -37 -5 -62
-9 -13 -13 -32 -10 -46 4 -16 0 -29 -14 -41 -12 -11 -21 -25 -21 -33 0 -7 -6
-13 -12 -13 -7 0 -39 -18 -71 -40 -31 -22 -61 -40 -66 -40 -4 0 -13 10 -19 23
-11 21 -12 21 -9 1 1 -12 -12 -39 -30 -60 -44 -53 -103 -133 -103 -139 0 -3 6
-5 13 -5 17 0 50 36 71 78 17 33 80 71 118 72 26 0 50 -29 42 -54 -11 -38 -55
-87 -92 -104 -43 -20 -52 -29 -52 -59 0 -61 -82 -140 -178 -174 -45 -16 -126
14 -160 59 -14 18 -43 42 -65 54 l-40 20 21 -27 c34 -43 36 -76 7 -131 -14
-27 -24 -58 -21 -69 3 -11 -6 -74 -19 -140 -41 -206 -50 -348 -47 -750 8
-1037 9 -975 -11 -989 -24 -19 -23 -115 4 -190 11 -32 19 -70 17 -85 -3 -25
-4 -24 -25 14 -60 110 -69 156 -76 393 -2 73 -7 135 -11 139 -7 7 -10 -50 -7
-124 3 -52 -14 -77 -21 -31 -3 20 -4 20 -19 6 -23 -23 -42 -199 -38 -348 4
-109 7 -131 29 -175 24 -48 27 -50 62 -48 21 1 38 -1 38 -5 0 -4 -9 -40 -20
-81 -11 -41 -20 -100 -20 -131 0 -70 -21 -101 -86 -130 -42 -18 -142 -86 -187
-125 -10 -8 -46 -33 -80 -54 -61 -37 -243 -156 -322 -211 -46 -31 -100 -60
-113 -60 -5 0 -6 17 -3 37 5 27 12 39 26 41 11 2 30 15 43 28 13 13 31 24 40
24 9 0 26 7 36 15 18 13 18 15 2 21 -9 4 -34 -1 -56 -11 -30 -13 -60 -17 -137
-15 -54 2 -117 2 -140 1 l-43 -1 0 -254 c0 -194 3 -256 12 -259 10 -4 10 -6 1
-6 -10 -1 -13 -42 -13 -171 l0 -170 28 6 c39 10 45 18 23 38 -19 17 -19 18 0
51 11 18 32 41 47 51 30 19 34 23 188 172 61 59 140 135 176 170 50 48 67 60
71 48 4 -10 -19 -41 -69 -93 -76 -78 -187 -208 -256 -299 -143 -189 -133 -179
-172 -178 l-36 1 0 -109 c0 -96 2 -109 16 -104 9 3 19 6 22 6 4 0 13 14 21 31
8 19 31 40 63 57 27 15 78 50 113 77 34 28 100 77 146 110 141 102 327 277
583 549 36 38 68 67 72 63 3 -3 -14 -27 -38 -54 -24 -26 -69 -79 -100 -118
-31 -38 -119 -135 -195 -215 -76 -80 -178 -192 -228 -250 -49 -57 -128 -144
-175 -193 -47 -49 -89 -99 -95 -111 -10 -21 -120 -151 -177 -207 l-28 -27 0
-176 0 -176 82 0 c45 0 79 -2 76 -5 -2 -3 -39 -5 -81 -6 -59 -1 -77 -5 -77
-15 0 -12 755 -14 5120 -14 3407 0 5120 3 5120 10 0 6 -15 11 -32 11 -18 1
-98 5 -178 9 l-145 6 155 2 c85 1 161 6 168 10 7 5 10 16 6 25 -4 11 0 19 10
23 10 4 16 18 16 40 0 26 -3 32 -15 28 -10 -4 -15 0 -15 11 0 11 5 15 15 11
13 -5 15 63 15 576 l0 581 -27 24 c-16 13 -50 36 -78 50 -27 14 -69 39 -92 54
-23 16 -44 29 -48 29 -3 0 -38 31 -78 70 -64 63 -69 70 -47 70 14 0 39 -11 55
-25 69 -58 181 -135 196 -135 9 0 32 -17 51 -37 73 -81 68 -97 68 206 0 259
-1 271 -19 271 -33 0 -227 104 -518 278 -56 33 -121 71 -145 83 -39 20 -183
114 -310 201 -26 18 -50 42 -53 53 -3 11 -44 47 -91 80 -47 33 -80 61 -74 63
6 2 45 -13 88 -33 42 -21 118 -52 167 -70 362 -128 470 -168 541 -198 45 -19
123 -47 175 -62 52 -15 121 -36 153 -46 86 -27 86 -27 86 35 0 47 -3 54 -22
60 -36 9 -40 7 -33 -14 5 -16 2 -20 -17 -20 -41 0 -67 11 -61 26 3 9 -2 14
-13 15 -92 3 -141 12 -157 30 -10 10 -24 19 -31 19 -7 0 -23 11 -36 25 -13 14
-29 25 -36 25 -7 0 -18 9 -24 20 -6 11 -40 33 -75 49 -36 17 -65 34 -65 40 0
5 -9 13 -20 16 -11 3 -26 12 -33 20 -8 7 -43 26 -78 40 -35 15 -74 36 -88 46
-13 10 -29 19 -35 19 -13 0 -104 59 -153 99 -17 14 -61 46 -97 71 -106 73 -82
92 34 27 132 -74 281 -146 357 -171 45 -15 106 -41 135 -57 29 -16 65 -29 79
-29 14 0 63 -14 110 -31 46 -17 127 -44 179 -59 52 -16 112 -35 132 -44 48
-21 48 -21 48 9 0 21 -5 25 -32 25 -18 1 -85 19 -148 41 -63 22 -126 43 -140
46 -14 3 -32 11 -40 18 -27 22 -79 37 -107 32 -33 -6 -73 8 -73 25 0 8 -45 27
-107 47 -59 19 -147 56 -197 82 -49 27 -92 49 -95 49 -4 0 -31 16 -61 36 -30
20 -68 43 -85 51 -16 9 -32 19 -35 23 -3 4 -56 42 -119 84 -63 43 -121 84
-129 92 -8 9 -25 22 -38 31 -21 13 -59 72 -51 79 1 1 34 -1 72 -6 75 -9 102
-10 327 -7 l147 2 3 -50 c3 -46 5 -50 31 -53 39 -5 106 37 144 90 36 50 74
142 99 238 23 88 22 306 -1 351 -22 41 -34 219 -15 219 9 0 10 10 6 32 -4 18
-9 62 -12 98 -6 75 -21 120 -45 137 -13 10 -16 24 -12 75 4 49 -1 81 -21 143
-14 43 -24 81 -22 82 2 2 39 -14 82 -35 44 -21 124 -54 179 -72 55 -18 107
-36 116 -41 24 -12 259 -59 294 -59 16 1 42 -2 58 -6 23 -5 27 -3 27 15 0 12
-6 21 -15 21 -8 0 -32 9 -52 20 -21 11 -51 20 -67 20 -68 0 -278 82 -336 130
l-25 22 35 -6 c19 -4 53 -15 75 -26 22 -11 76 -27 120 -36 44 -8 116 -24 160
-34 100 -25 105 -25 105 -1 0 20 -32 37 -49 27 -15 -10 -231 50 -306 85 -22
10 -61 27 -87 38 -25 10 -79 39 -120 63 -40 25 -81 47 -90 51 -24 9 -23 27 2
27 11 0 20 4 20 9 0 13 -56 59 -99 80 -20 11 -44 28 -55 40 -30 33 3 37 60 8
27 -14 123 -58 214 -97 91 -39 184 -81 208 -92 24 -11 46 -18 49 -14 5 5 -150
82 -262 131 -16 7 -46 27 -65 45 -39 35 -30 36 60 0 117 -46 222 -81 227 -76
4 3 -14 14 -38 24 -24 11 -78 33 -120 51 -41 18 -88 43 -104 56 -29 26 -20 33
17 14 11 -6 34 -12 51 -15 27 -3 29 -2 16 11 -18 19 -188 83 -262 100 -36 8
-69 23 -85 38 -15 14 -49 35 -77 47 -47 20 -105 65 -105 81 0 5 -14 31 -30 60
-41 69 -60 146 -60 244 0 156 -42 430 -96 620 -35 125 -83 272 -104 320 -10
22 -32 78 -50 125 -18 47 -41 102 -52 124 -11 21 -17 47 -15 58 10 36 -71 230
-118 282 -14 17 -23 36 -20 44 5 14 -30 127 -48 150 -5 6 -16 12 -25 12 -9 0
-26 10 -40 23 l-24 22 22 -55 c12 -30 28 -62 36 -71 7 -8 22 -40 33 -71 10
-30 26 -69 35 -86 9 -17 16 -47 16 -66 0 -19 6 -39 13 -43 15 -9 32 -63 20
-63 -5 0 -46 72 -93 160 -62 116 -90 160 -103 160 -10 0 -16 3 -13 8 2 4 -1
21 -8 37 -9 21 -21 31 -38 32 -39 4 -51 -18 -39 -64 6 -21 11 -48 11 -61 0
-20 -2 -21 -21 -10 -17 11 -22 10 -35 -6 -14 -19 -15 -19 -45 10 -17 16 -48
52 -69 79 -21 28 -54 62 -74 75 -22 16 -36 33 -36 46 0 12 -7 27 -16 34 -12
11 -18 11 -31 -2 -14 -15 -13 -19 10 -50 14 -18 29 -46 33 -63 4 -16 13 -39
20 -50 31 -44 9 -47 -49 -6 -35 24 -119 51 -157 51 -6 0 -10 -18 -10 -41 0
-53 -14 -48 -63 22 -21 30 -43 56 -49 58 -15 5 -1 -66 18 -93 19 -28 18 -76
-1 -76 -8 0 -15 -6 -15 -13 0 -8 -7 -14 -15 -14 -8 0 -12 3 -10 7 4 6 -25 17
-92 35 -20 6 -23 3 -23 -24 0 -30 -1 -31 -50 -31 -33 0 -54 5 -62 16 -50 61
-68 69 -68 30 0 -32 -60 -96 -90 -96 -24 0 -150 103 -150 123 0 11 -32 57
-114 166 -26 34 -34 71 -17 71 5 0 22 -6 38 -14 30 -16 168 -33 220 -28 l33 3
-15 36 c-32 77 -4 114 47 61 33 -35 58 -37 58 -4 0 35 -18 77 -44 106 -13 14
-34 45 -47 70 -13 25 -30 51 -36 58 -7 7 -13 18 -13 24 0 5 -5 8 -12 6 -16 -6
-88 65 -88 86 0 9 -4 16 -9 16 -20 0 -41 33 -41 66 0 19 -5 34 -11 34 -8 0 -9
4 0 13 6 8 8 17 4 20 -13 14 -40 6 -72 -21 -31 -26 -33 -31 -24 -58 13 -36 5
-136 -10 -127 -6 4 -7 -4 -3 -22 19 -76 18 -83 -13 -139 -20 -33 -28 -57 -21
-61 13 -8 13 -42 -1 -51 -14 -8 -68 44 -75 72 -3 12 -30 45 -59 73 -60 57 -63
81 -14 107 34 17 39 53 9 61 -11 3 -18 9 -15 13 3 5 -4 11 -15 15 -29 9 -25
27 10 47 17 9 30 23 30 30 0 9 -3 9 -10 -2 -8 -12 -10 -11 -10 6 0 15 -8 24
-24 28 -28 7 -58 -2 -51 -14 3 -5 1 -11 -4 -15 -6 -3 -8 -12 -5 -19 3 -7 -1
-20 -8 -27 -27 -28 -48 -64 -48 -84 0 -27 -37 -50 -55 -35 -8 7 -19 9 -24 5
-6 -3 -26 -3 -44 0 -37 7 -63 42 -62 85 0 14 -6 31 -12 38 -9 10 -10 19 -3 33
6 10 8 19 5 19 -3 0 1 13 9 28 14 27 13 30 -28 75 -43 48 -69 57 -107 37 -17
-9 -19 -7 -19 16 0 15 9 35 21 45 11 10 18 23 14 28 -4 7 4 11 19 11 14 0 26
4 26 9 0 5 9 11 20 14 28 7 25 36 -5 47 -13 5 -57 12 -96 15 -40 2 -75 8 -78
12 -9 11 -49 33 -61 33 -6 0 -22 7 -36 16 -19 13 -22 20 -13 30 6 8 15 11 20
8 5 -3 9 2 9 10 0 13 12 16 61 16 52 0 60 2 55 16 -3 9 -6 18 -6 20 0 2 -54 4
-119 4 -66 0 -122 4 -125 9 -12 19 26 31 130 40 98 9 111 12 129 34 l20 25 80
-13 c123 -21 206 -53 265 -104 l35 -31 -24 -20 c-13 -11 -29 -20 -37 -20 -24
0 -15 -17 11 -24 14 -4 48 -20 76 -37 27 -17 52 -29 55 -26 3 3 1 22 -5 43
-13 46 -5 56 35 48 41 -8 55 -21 97 -86 20 -31 45 -61 55 -67 11 -6 22 -23 25
-38 3 -15 31 -54 61 -85 31 -32 56 -62 56 -67 0 -5 8 -10 18 -9 9 0 32 -3 51
-7 l34 -8 -29 51 c-16 29 -32 52 -36 52 -5 0 -8 9 -8 20 0 11 -7 20 -15 20
-16 0 -89 69 -147 140 -20 25 -49 60 -63 77 -16 20 -46 40 -77 50 -27 10 -75
39 -106 66 -32 26 -84 65 -117 88 -63 42 -71 54 -86 133 -5 28 -19 60 -31 73
-12 13 -17 23 -13 23 5 0 -1 7 -14 16 -13 9 -34 17 -47 17 -13 0 -24 3 -24 8
0 5 5 9 10 9 6 0 10 4 10 9 0 10 -48 25 -68 22 -17 -3 -85 19 -79 26 3 2 11 6
19 7 31 7 49 19 44 32 -3 7 1 20 9 28 12 12 8 15 -30 25 -24 6 -50 8 -58 5
-17 -6 -31 22 -15 32 6 4 25 10 42 14 l31 7 -40 11 c-22 7 -52 12 -67 12 -16
0 -28 5 -28 10 0 6 -7 10 -15 10 -16 0 -21 16 -7 23 13 8 225 -22 276 -38 26
-9 50 -14 53 -11 10 10 -46 36 -98 46 -30 6 -81 19 -114 29 -148 46 -404 80
-610 81 -121 0 -170 11 -130 27 30 12 342 9 405 -4 162 -34 313 -52 322 -39 4
6 6 11 5 13 -5 4 -236 44 -337 58 -236 32 -566 47 -682 32z m908 -439 c25 -12
43 -27 41 -32 -6 -16 -76 -12 -136 8 -30 10 -98 19 -164 22 -62 2 -123 8 -137
11 -50 13 50 22 203 17 129 -3 155 -7 193 -26z m-2846 -256 c0 -4 -21 -21 -46
-37 -25 -16 -60 -49 -76 -73 -17 -25 -49 -61 -72 -81 -22 -20 -50 -47 -61 -60
-45 -52 -56 -61 -75 -61 -62 0 23 118 120 166 30 15 85 56 123 91 63 59 87 74
87 55z m594 -252 c-6 -6 -57 -28 -114 -50 -56 -21 -120 -52 -142 -67 -22 -15
-60 -42 -86 -60 -26 -17 -59 -41 -74 -53 -54 -42 -27 -2 35 53 116 102 106 96
287 175 33 14 108 16 94 2z m1910 -775 c3 -13 25 -47 49 -73 23 -27 61 -80 85
-118 64 -104 89 -131 104 -116 10 10 7 17 -13 36 -14 13 -31 38 -39 55 -39 96
53 -4 183 -197 54 -81 104 -153 112 -162 11 -12 12 -30 5 -83 -11 -94 3 -135
75 -215 16 -18 38 -48 50 -66 45 -75 173 -236 247 -312 43 -45 78 -88 78 -95
0 -8 12 -27 26 -44 l25 -30 -4 58 c-2 31 -2 57 -1 57 2 0 13 -18 24 -39 16
-32 18 -45 10 -67 -6 -15 -9 -33 -6 -41 7 -18 1 -16 -20 4 -9 10 -22 18 -28
19 -6 0 -16 2 -22 2 -7 1 -14 12 -18 25 -5 19 -8 20 -17 7 -8 -12 -9 -9 -3 10
3 14 3 22 -1 18 -10 -10 -55 38 -55 59 0 17 -45 63 -61 63 -6 0 -7 5 -4 10 10
17 -52 106 -106 150 -34 29 -59 63 -83 113 -19 40 -52 90 -73 112 -21 22 -55
62 -77 88 -34 43 -38 52 -32 88 6 40 -8 55 -19 19 -11 -34 -20 -22 -17 23 3
34 -1 47 -21 69 -24 26 -27 27 -53 13 -35 -18 -46 -9 -17 14 14 12 21 27 19
43 -3 25 -42 72 -61 73 -11 0 -56 42 -54 51 1 3 -9 17 -21 31 -12 14 -23 34
-25 46 -3 11 -13 30 -24 41 -10 12 -33 53 -50 91 -28 62 -55 120 -83 178 -5
10 -5 17 1 17 5 0 12 -11 15 -25z m930 -55 c76 -63 133 -132 141 -170 4 -17
22 -56 41 -87 19 -31 34 -68 34 -82 0 -14 18 -55 40 -92 37 -62 47 -89 35 -89
-10 0 -62 26 -84 42 -13 10 -27 18 -32 18 -7 0 7 -58 26 -103 6 -14 -6 -11
-56 15 -35 17 -73 31 -84 30 -42 -4 -62 7 -62 33 0 20 2 23 13 14 10 -8 14 -8
14 -1 0 13 -76 36 -90 27 -6 -3 -10 -19 -10 -36 0 -49 -15 -33 -28 30 -7 32
-20 65 -29 72 -15 13 -15 10 -9 -34 4 -27 14 -67 22 -90 20 -57 13 -73 -25
-51 -36 21 -81 12 -81 -16 0 -24 -25 -27 -34 -4 -3 8 -1 24 4 34 16 29 12 35
-10 15 -20 -18 -21 -18 -46 6 -15 13 -36 40 -49 59 -12 19 -53 68 -91 109 -38
40 -73 80 -77 87 -14 24 32 16 56 -9 34 -36 57 -41 78 -16 27 31 24 46 -21
114 -21 32 -38 60 -36 62 1 1 27 -21 58 -51 30 -30 72 -60 92 -67 20 -7 36
-19 36 -26 0 -12 5 -14 43 -17 6 -1 11 7 9 16 -2 12 2 16 13 12 21 -9 20 24
-4 77 -33 73 -14 78 61 14 69 -60 94 -58 89 4 -8 112 -10 128 -16 164 -4 20
-3 37 2 37 5 0 35 -22 67 -50z m-1844 -200 c-7 -47 -18 -111 -26 -143 -8 -32
-14 -83 -14 -113 0 -31 -6 -76 -14 -102 -15 -51 -34 -122 -43 -162 -3 -14 -14
-37 -24 -52 -11 -14 -19 -34 -19 -44 0 -9 -11 -36 -24 -58 -13 -23 -37 -79
-54 -126 -35 -99 -95 -248 -122 -305 -32 -69 -70 -162 -70 -173 0 -16 -41 -42
-67 -42 -28 0 -28 1 -3 42 10 18 37 83 58 143 59 163 85 227 104 254 12 18 15
36 11 72 -4 31 0 65 11 98 38 120 46 149 55 208 5 34 17 75 25 92 9 16 16 36
16 44 0 8 18 70 40 138 22 68 49 156 61 194 27 91 32 99 58 103 13 2 23 13 27
30 21 95 31 23 14 -98z m634 18 c19 -40 54 -129 79 -198 25 -69 62 -154 82
-190 20 -36 52 -103 71 -149 19 -46 38 -89 43 -95 11 -13 75 -132 103 -191 10
-22 23 -47 29 -55 5 -8 17 -28 27 -44 9 -15 39 -63 66 -105 27 -42 61 -96 77
-121 50 -79 103 -152 152 -208 26 -30 47 -61 47 -69 0 -8 22 -34 50 -60 27
-25 83 -95 124 -157 41 -61 101 -140 134 -176 55 -60 59 -63 55 -35 -4 18 -24
47 -53 75 -26 25 -57 65 -69 90 -11 25 -39 74 -62 109 -55 87 -64 111 -40 111
20 0 83 -81 144 -185 22 -38 58 -99 80 -135 39 -64 62 -141 39 -126 -21 12
-13 -8 21 -59 19 -28 42 -67 52 -88 13 -29 20 -35 30 -27 14 12 20 2 29 -53
10 -55 17 -67 42 -67 13 0 24 1 24 3 0 31 -199 408 -255 483 -24 32 -125 237
-125 254 0 5 43 9 100 9 54 0 103 1 107 4 14 8 135 -13 151 -26 9 -6 28 -30
44 -51 15 -21 28 -33 28 -25 1 8 8 1 17 -16 9 -16 29 -45 46 -64 16 -19 44
-57 62 -85 19 -28 61 -80 94 -116 34 -35 61 -68 61 -73 0 -4 5 -5 10 -2 6 3
10 -1 10 -9 0 -9 14 -25 30 -38 17 -12 30 -27 30 -33 0 -6 27 -37 60 -70 33
-33 60 -64 60 -70 0 -5 22 -34 49 -63 27 -30 57 -69 66 -87 8 -19 26 -47 39
-62 20 -25 58 -80 136 -200 20 -31 25 -54 28 -127 4 -86 -21 -269 -39 -290
-14 -15 -100 66 -130 123 -37 70 -59 99 -134 180 -128 136 -302 224 -502 251
-172 24 -322 -5 -431 -84 -47 -34 -52 -42 -50 -72 1 -22 -5 -41 -18 -56 -31
-35 -78 -108 -72 -113 2 -2 26 11 53 30 27 19 53 35 58 35 5 0 17 10 27 23 10
12 21 19 25 16 3 -4 -6 -21 -21 -39 -15 -17 -41 -71 -57 -118 -24 -71 -31
-109 -35 -202 -4 -96 -2 -118 11 -128 13 -11 19 -10 36 7 12 12 25 21 29 21
22 0 52 43 52 75 0 34 24 69 43 62 5 -1 15 -23 22 -48 25 -100 86 -169 150
-169 51 0 145 54 145 84 1 43 41 41 63 -4 18 -34 45 -49 57 -30 5 8 10 25 10
38 0 12 4 22 9 22 13 0 22 -28 11 -35 -12 -7 -13 -55 -2 -55 4 0 14 6 21 13
11 10 12 8 8 -8 -3 -11 -8 -33 -12 -50 -4 -16 -13 -37 -21 -46 -10 -11 -12
-23 -6 -39 8 -22 9 -21 30 15 74 125 120 391 80 468 -9 17 -11 17 -42 -3 -48
-29 -91 -26 -127 9 -25 25 -29 37 -29 84 0 47 3 57 24 71 36 23 108 37 160 30
85 -12 246 -186 304 -329 24 -60 26 -114 6 -182 -11 -40 12 -25 66 40 62 74
61 73 128 79 61 6 60 8 32 -96 -26 -95 -38 -163 -50 -304 -12 -135 -31 -185
-111 -297 -31 -44 -75 -107 -98 -140 -40 -59 -60 -83 -153 -190 -26 -30 -54
-67 -62 -82 -8 -15 -24 -35 -36 -43 -12 -8 -29 -21 -38 -28 -15 -11 -15 -11 3
-6 11 3 68 24 128 46 59 23 111 38 114 34 4 -4 -4 -31 -19 -59 -47 -90 -106
-231 -113 -267 -3 -19 -16 -53 -28 -76 -12 -22 -38 -72 -58 -110 -40 -80 -62
-114 -131 -199 -124 -153 -192 -211 -455 -389 -45 -31 -84 -60 -88 -66 -3 -5
-38 -28 -78 -51 -161 -93 -341 -214 -377 -255 -18 -21 -39 -34 -54 -34 -14 0
-28 -5 -32 -11 -8 -14 -135 -73 -190 -89 -79 -23 -268 13 -494 93 -36 13 -74
28 -86 35 -11 6 -30 9 -40 6 -11 -3 -30 3 -43 15 -13 12 -32 21 -42 21 -9 0
-19 5 -21 11 -2 5 -24 13 -48 16 -25 3 -53 13 -63 22 -35 30 -90 50 -109 40
-13 -7 -18 -6 -16 2 2 7 -14 18 -35 24 -22 6 -43 18 -48 27 -5 9 -17 14 -27
11 -10 -2 -29 6 -44 19 -47 43 -153 115 -205 142 -57 28 -67 31 -58 16 9 -14
-1 -12 -17 4 -8 7 -25 17 -38 21 -24 6 -24 5 5 -19 17 -15 53 -38 80 -53 28
-14 75 -43 105 -63 54 -36 315 -180 328 -180 3 0 25 -9 49 -20 24 -11 63 -29
87 -40 24 -11 75 -31 112 -44 38 -13 134 -47 213 -75 197 -69 272 -85 379 -78
102 6 145 18 198 53 21 15 56 29 76 32 31 4 38 9 38 27 0 16 8 25 26 29 15 4
28 6 29 4 2 -2 -1 -26 -6 -53 -11 -58 -13 -239 -3 -317 10 -83 33 -169 58
-213 13 -22 28 -56 35 -76 11 -36 73 -109 91 -109 14 0 16 -4 -45 111 -30 57
-55 113 -55 125 0 31 50 20 122 -28 122 -81 333 -148 569 -182 25 -4 78 -25
119 -49 72 -41 96 -65 209 -209 34 -44 71 -85 235 -261 50 -54 97 -111 104
-126 8 -15 26 -35 40 -45 15 -10 45 -41 67 -68 22 -28 66 -82 97 -121 54 -67
59 -71 102 -73 26 -2 46 -1 46 2 0 3 -27 45 -61 94 -35 52 -91 117 -134 155
-81 73 -94 95 -75 131 10 17 10 27 2 37 -9 10 -8 19 4 35 20 29 32 21 26 -16
-2 -16 1 -33 7 -36 6 -4 11 -2 11 3 0 6 13 11 28 11 36 0 44 8 31 31 -19 37
19 20 53 -22 47 -59 160 -173 252 -254 44 -38 88 -79 100 -90 34 -33 110 -85
126 -86 8 -1 -3 -5 -25 -9 -48 -9 -4215 -13 -4239 -4 -15 6 -15 7 -1 18 10 7
18 34 22 71 3 33 9 67 14 76 7 15 144 68 214 84 40 9 93 42 111 70 12 19 12
27 -1 65 -20 57 -19 80 4 80 12 0 33 -24 62 -72 49 -81 99 -134 208 -223 40
-33 83 -69 95 -80 46 -44 102 -73 131 -68 l28 6 -26 11 c-45 19 -287 263 -287
288 0 6 -10 24 -22 41 -14 19 -22 46 -23 75 -1 42 1 46 32 58 18 8 33 18 33
23 0 5 9 11 19 14 14 3 21 -2 25 -18 4 -15 20 -28 46 -39 52 -21 116 -82 126
-120 4 -16 19 -36 35 -45 18 -10 29 -24 29 -37 0 -12 15 -35 34 -52 19 -17 52
-54 72 -82 30 -42 39 -49 46 -36 10 17 -19 83 -47 106 -9 8 -27 35 -41 61 -13
26 -28 50 -33 53 -31 20 -205 425 -189 441 3 3 18 -1 34 -8 82 -41 103 -49
113 -46 7 3 -14 22 -45 44 -61 43 -90 71 -105 97 -7 13 -5 15 14 10 12 -3 33
-14 46 -24 27 -20 35 -19 26 5 -5 13 -68 59 -174 129 -14 10 -35 28 -46 41
-11 14 -60 58 -110 100 -49 41 -116 101 -147 134 -89 90 -90 97 -92 579 -1
321 1 401 11 397 7 -3 13 -9 13 -14 0 -5 7 -9 15 -9 8 0 15 3 15 8 0 8 -59 61
-155 139 -38 31 -104 88 -146 127 -41 39 -119 111 -173 160 -93 85 -100 94
-148 195 -27 58 -70 162 -94 231 -25 68 -51 136 -59 150 -18 34 -37 165 -33
220 3 35 6 41 12 26 31 -65 84 -136 177 -232 58 -60 130 -136 160 -169 68 -77
162 -151 168 -134 2 7 -14 29 -35 49 -57 51 -273 385 -334 515 -13 28 -28 57
-35 65 -18 24 -54 121 -64 175 -6 28 -21 84 -35 125 -14 41 -30 113 -35 159
-5 45 -14 88 -20 94 -18 18 -14 50 5 43 9 -3 28 -6 44 -6 16 0 35 -7 44 -15 8
-8 22 -15 31 -15 26 0 57 -19 107 -68 26 -25 50 -44 52 -41 3 2 -8 33 -24 69
-34 75 -36 95 -14 104 14 5 16 18 12 78 -5 67 -4 73 20 95 14 13 28 21 30 18
3 -3 5 -27 3 -53 -3 -66 42 -215 86 -281 33 -51 37 -53 49 -36 21 28 18 72 -5
85 -34 18 -36 49 -5 81 15 16 31 29 36 29 4 0 8 -25 8 -56 0 -49 2 -55 18 -50
11 4 36 -1 56 -9 29 -12 37 -13 34 -3 -3 7 -17 19 -31 26 -23 11 -27 19 -27
56 0 47 10 61 52 71 22 6 33 -1 79 -48 60 -61 96 -74 175 -62 59 8 126 70 145
133 18 63 71 88 117 56 l22 -15 -22 -20 c-23 -19 -23 -19 -4 -34 11 -8 26 -15
33 -15 7 0 13 -5 13 -11 0 -7 12 -10 29 -7 21 3 28 1 24 -9 -4 -9 0 -11 11 -7
25 10 22 -67 -4 -91 -11 -10 -20 -23 -20 -29 0 -56 -59 -146 -95 -146 -16 0
-38 -34 -28 -44 4 -4 -11 -4 -34 0 -29 4 -63 0 -117 -16 -97 -29 -110 -46 -30
-36 138 16 187 28 213 54 19 19 36 26 61 25 19 -1 27 1 18 3 -25 8 -22 37 6
63 105 99 130 536 34 595 -12 7 -22 6 -35 -6 -48 -41 -165 -17 -179 36 -8 32
2 76 18 76 6 0 20 8 30 17 12 11 34 17 56 16 l37 -2 2 51 c1 28 6 55 11 60 6
6 34 2 76 -12 36 -12 68 -21 71 -19 4 2 11 -4 16 -13 6 -10 18 -18 28 -18 9 0
33 -12 52 -26 35 -27 94 -56 139 -69 20 -6 13 5 -35 54 -58 60 -55 68 12 28
60 -35 56 -12 -7 43 -35 30 -72 59 -83 65 -11 5 -19 15 -18 20 2 10 68 9 104
-1 10 -3 17 0 17 9 0 22 -52 42 -169 67 -94 20 -124 22 -290 17 -164 -4 -199
-8 -296 -34 -124 -33 -213 -78 -323 -162 -41 -31 -90 -68 -110 -84 -21 -15
-52 -41 -71 -57 -19 -17 -37 -30 -40 -30 -14 0 -72 41 -77 55 -13 33 8 65 71
111 36 26 65 53 65 60 0 13 130 180 159 205 11 8 31 40 46 70 15 30 36 65 45
79 10 14 43 73 73 130 29 58 83 149 119 202 36 53 72 109 80 125 8 15 29 55
46 88 18 33 32 65 32 71 0 7 7 15 16 18 8 3 12 2 9 -4 -3 -6 -3 -15 1 -21 3
-6 14 6 24 29 18 40 53 72 78 72 20 0 10 -26 -79 -206 -43 -89 -79 -168 -79
-176 0 -21 -39 -68 -40 -49 0 23 -15 1 -34 -52 -25 -68 -14 -80 16 -19 15 29
28 47 31 40 3 -8 9 -3 15 12 11 24 58 86 50 65 -12 -31 -44 -85 -49 -85 -4 0
-26 -29 -48 -65 -25 -40 -46 -63 -53 -59 -7 4 -8 3 -4 -5 4 -6 -23 -47 -67
-99 -88 -102 -134 -147 -124 -119 4 10 7 22 7 27 0 4 18 30 40 56 56 68 50 78
-9 15 -28 -30 -51 -65 -55 -84 -5 -24 -34 -58 -113 -134 -134 -126 -129 -154
7 -40 71 59 274 264 329 332 66 80 164 222 241 344 54 87 57 92 134 228 26 45
55 85 64 89 9 4 87 8 172 8 167 2 180 7 142 52 -32 38 -61 46 -167 48 -100 1
-103 2 -93 21 6 11 21 31 34 45 40 43 152 299 263 600 62 168 83 242 101 363
6 43 17 95 24 115 l13 36 6 -69 c4 -39 7 -124 7 -190 0 -213 64 -1091 89
-1225 9 -45 9 -45 11 -10 2 19 2 49 1 65 l-2 30 19 -28 c10 -15 22 -24 25 -20
4 3 7 1 7 -5 0 -6 6 -9 14 -6 8 3 17 -2 20 -13 7 -21 1 -326 -9 -458 -7 -100
8 -100 20 0 4 33 11 65 15 70 11 13 30 218 30 320 0 44 5 117 10 162 6 44 11
121 13 171 1 50 5 85 9 78 9 -16 32 -147 51 -291 24 -180 69 -420 79 -426 5
-3 15 -51 23 -106 14 -112 34 -168 35 -98 0 47 -24 231 -39 296 -6 25 -15 108
-21 185 -5 76 -12 156 -15 177 -3 23 -2 36 4 33 5 -4 13 -41 16 -84 5 -52 14
-86 28 -106 15 -22 20 -46 22 -110 1 -44 3 -94 4 -111 l3 -30 8 32 c8 35 6
545 -4 798 -3 88 -13 232 -21 320 -14 147 -36 830 -28 848 8 14 12 7 47 -65z
m-954 -97 c0 -39 19 -91 34 -91 7 0 18 23 25 51 19 73 32 42 20 -46 -13 -99
-53 -241 -67 -237 -7 1 -12 -11 -12 -30 0 -19 -20 -73 -45 -123 -47 -95 -59
-101 -25 -13 11 29 20 55 20 57 0 13 -44 -38 -53 -62 -10 -24 -12 -13 -15 81
-2 101 0 114 31 203 19 52 37 112 41 134 16 92 46 142 46 76z m1152 -28 c9 -8
24 -13 34 -11 10 2 19 -2 19 -9 0 -6 3 -15 8 -19 4 -4 7 -16 7 -26 0 -11 7
-33 17 -51 l16 -32 13 30 c7 17 13 23 14 14 0 -9 23 -60 50 -114 28 -54 50
-111 50 -127 0 -28 15 -39 22 -16 3 7 11 -1 20 -17 8 -17 23 -43 32 -60 9 -16
16 -38 16 -47 0 -30 37 -115 63 -142 9 -11 18 -27 18 -35 1 -9 3 -23 4 -31 1
-8 3 -22 4 -31 0 -9 12 -21 25 -27 15 -7 27 -23 31 -44 4 -18 14 -43 23 -56 8
-12 13 -25 10 -27 -7 -7 -75 102 -188 300 -56 99 -108 187 -115 195 -7 8 -47
78 -90 154 -44 76 -94 153 -112 171 -21 21 -33 42 -33 59 0 28 8 28 42 -1z
m192 -116 c30 -45 78 -113 105 -152 74 -102 76 -107 55 -141 l-19 -28 -3 32
c-2 20 -8 32 -15 29 -7 -2 -27 26 -47 64 -19 37 -61 118 -92 179 -32 61 -53
108 -48 105 5 -3 34 -43 64 -88z m-1976 41 c-8 -48 -1 -58 39 -58 l36 0 -5
-50 c-3 -28 -12 -58 -21 -68 -8 -9 -19 -30 -23 -47 -3 -16 -18 -45 -31 -63
-13 -18 -33 -53 -44 -77 -19 -44 -52 -61 -61 -34 -8 24 -58 -40 -102 -131 -25
-51 -46 -84 -46 -72 0 12 4 30 9 40 11 22 51 154 51 169 0 6 11 35 24 64 14
29 23 56 20 61 -3 4 -1 8 5 8 5 0 15 16 22 37 28 87 109 253 123 253 5 0 6
-15 4 -32z m525 -10 c-2 -24 -8 -52 -13 -63 -5 -11 -11 -42 -13 -70 -4 -48
-30 -168 -46 -210 -7 -18 -9 -17 -24 12 -22 42 -22 122 0 153 15 21 39 80 77
188 15 45 25 40 19 -10z m-168 2 c-6 -27 -4 -30 15 -27 12 2 25 9 30 17 4 7
12 10 18 6 13 -8 -10 -103 -36 -153 -11 -21 -39 -75 -61 -120 -41 -84 -59
-100 -68 -63 -9 36 -39 7 -120 -119 -2 -2 -6 -2 -9 2 -4 3 -1 21 5 38 8 22 8
36 1 43 -5 5 -10 18 -10 29 0 10 -5 15 -10 12 -25 -16 -94 -123 -121 -188 -17
-40 -37 -79 -46 -87 -14 -14 -15 -12 -10 15 7 39 131 384 165 458 33 73 50 84
77 50 l21 -25 46 31 c26 17 61 49 78 71 18 22 34 40 37 40 2 0 2 -14 -2 -30z
m-1889 -25 c3 -8 -6 -36 -19 -62 -14 -26 -33 -70 -42 -98 -9 -27 -26 -66 -36
-86 -10 -20 -19 -44 -19 -53 0 -21 -34 -38 -47 -25 -13 13 43 163 76 205 11
15 21 36 21 48 0 25 35 86 50 86 6 0 13 -7 16 -15z m653 -21 c-6 -7 -9 -21 -5
-29 5 -14 13 -11 50 14 24 17 46 28 48 25 3 -3 3 -24 1 -47 -4 -34 -1 -44 15
-54 17 -10 24 -6 61 39 22 28 41 48 41 44 0 -3 -10 -40 -21 -83 -27 -98 -58
-147 -109 -172 l-40 -19 6 26 c4 15 17 46 30 69 34 59 13 63 -40 9 -43 -45
-95 -64 -82 -31 10 28 -5 45 -40 45 -30 0 -34 3 -34 25 0 14 6 40 13 58 16 38
93 110 108 101 6 -4 6 -11 -2 -20z m309 -78 l7 -66 53 51 c54 52 84 60 90 24
6 -32 23 -47 38 -34 23 19 34 0 30 -57 -4 -59 -27 -103 -57 -111 -10 -3 -17
-9 -14 -13 3 -5 1 -11 -5 -15 -5 -3 -7 -17 -4 -31 4 -14 2 -24 -5 -24 -6 0
-11 8 -11 17 0 15 -1 15 -13 -1 -12 -16 -16 -17 -34 -5 -19 11 -24 9 -45 -16
-37 -43 -50 -26 -46 58 3 61 0 72 -14 75 -10 2 -27 -7 -38 -20 -79 -90 -101
-111 -96 -93 3 11 10 40 16 65 23 91 33 116 55 140 12 14 26 39 29 55 7 29 45
79 53 71 3 -2 8 -34 11 -70z m1865 -237 c2 -232 -4 -340 -23 -409 -4 -16 -9
16 -14 85 -4 67 -2 124 4 145 6 19 11 129 11 243 1 132 5 205 11 199 5 -5 10
-118 11 -263z m517 205 c0 -19 45 -111 60 -124 9 -8 60 -126 60 -140 0 -7 10
-22 23 -34 13 -12 37 -55 53 -96 15 -41 36 -80 45 -87 9 -7 29 -38 44 -69 34
-70 102 -182 125 -209 22 -24 63 -105 57 -111 -4 -4 -37 37 -92 116 -14 19
-32 51 -41 70 -9 19 -29 55 -46 79 -16 24 -61 105 -100 180 -39 75 -78 147
-87 161 -10 14 -43 78 -75 143 -44 91 -56 125 -51 145 5 20 8 23 16 11 5 -7 9
-24 9 -35z m380 -190 c0 -8 -4 -12 -10 -9 -5 3 -10 -3 -10 -15 0 -19 37 -74
167 -253 16 -21 46 -46 70 -57 33 -15 43 -24 43 -43 0 -31 10 -40 25 -21 9 14
15 10 40 -26 16 -23 46 -61 67 -83 21 -23 41 -50 44 -59 3 -10 10 -18 15 -18
13 0 104 -99 104 -113 0 -7 24 -36 54 -65 41 -41 51 -56 41 -62 -8 -5 -21 -5
-29 0 -25 12 -219 6 -233 -8 -33 -33 -47 -13 -166 238 -22 47 -47 92 -56 99
-9 7 -16 22 -16 32 0 20 -157 346 -189 394 -26 37 -26 40 -1 65 24 24 40 26
40 4z m405 -169 c7 -30 18 -52 30 -59 22 -13 38 -31 57 -65 7 -13 24 -37 38
-51 32 -35 93 -120 102 -142 22 -55 -78 37 -112 102 -10 20 -34 53 -54 75 -20
21 -36 42 -36 45 0 3 -18 19 -40 36 -41 30 -50 57 -29 95 16 31 33 17 44 -36z
m-4217 -177 c107 -214 134 -408 56 -408 -13 0 -14 10 -9 53 15 122 -48 294
-135 369 -28 24 -50 48 -50 53 0 13 38 32 66 34 16 1 30 -19 72 -101z m256
-469 c33 -29 36 -29 64 -15 16 8 34 21 40 29 13 15 178 22 197 7 6 -4 52 -29
103 -55 72 -36 92 -51 92 -68 l0 -20 23 21 c17 16 26 19 34 11 7 -7 19 -9 28
-5 13 4 15 13 10 36 -8 38 17 42 41 6 8 -14 28 -28 44 -31 35 -8 42 -25 29
-65 -14 -38 -28 -38 -61 0 -14 17 -31 30 -37 30 -16 0 -13 -26 5 -41 8 -7 24
-29 34 -50 16 -30 17 -39 6 -54 -11 -16 -16 -15 -73 14 -34 17 -89 58 -123 91
-53 52 -66 60 -98 60 -56 0 -72 -16 -22 -23 52 -7 89 -31 101 -67 11 -31 75
-86 117 -101 57 -20 83 -113 40 -143 -29 -21 -35 -20 -43 3 -6 20 -83 37 -99
21 -15 -15 12 -38 55 -45 41 -7 45 -25 5 -25 -15 0 -26 -7 -29 -20 -4 -17 -14
-20 -62 -20 -50 0 -56 2 -50 18 13 31 10 46 -8 50 -13 3 -17 -1 -15 -15 6 -34
-26 -19 -33 15 -10 51 -25 59 -38 22 -13 -39 -44 -38 -49 2 -2 15 -10 32 -18
38 -8 7 -14 19 -14 26 0 19 26 18 34 -1 3 -8 12 -15 21 -15 8 0 15 7 15 15 0
8 -8 15 -18 15 -26 0 -67 101 -67 165 0 56 -19 70 -21 15 -2 -61 -3 -65 -15
-53 -7 7 -15 29 -18 49 -7 44 -26 55 -35 20 -11 -44 -29 -53 -88 -45 -29 4
-84 8 -123 9 -76 2 -117 12 -97 24 7 4 17 17 23 29 10 19 7 18 -18 -5 -30 -29
-57 -36 -68 -18 -3 6 -17 7 -30 4 -32 -8 -40 12 -14 33 12 10 29 26 38 37 37
43 59 59 116 86 81 39 125 39 169 -1z m-342 -17 c8 -27 -10 -63 -33 -69 -18
-5 -20 -11 -16 -39 5 -29 3 -34 -14 -34 -20 0 -23 -4 -33 -53 -9 -40 -30 -43
-71 -11 -33 25 -36 30 -33 75 2 29 8 51 16 54 7 3 11 1 8 -4 -3 -4 3 -16 14
-26 20 -18 21 -17 56 21 19 21 47 54 61 72 29 36 39 40 45 14z m4898 -208 c0
5 6 3 14 -3 8 -7 12 -20 9 -29 -2 -10 7 -28 21 -41 14 -14 26 -30 26 -37 0 -7
19 -35 43 -62 42 -51 72 -120 58 -135 -7 -7 -67 63 -149 177 -12 17 -21 39
-18 49 2 9 1 17 -2 17 -4 0 -15 12 -25 26 -14 18 -16 28 -8 38 6 7 10 15 8 17
-1 2 4 -2 11 -10 6 -8 12 -11 12 -7z m-4521 -55 c11 -12 24 -18 30 -15 19 12
28 -28 17 -73 -12 -45 -14 -48 -80 -76 -29 -13 -44 -15 -62 -7 -41 19 -102 82
-109 112 -4 17 -11 32 -16 35 -5 4 -9 13 -9 20 0 26 30 4 56 -41 14 -24 32
-44 39 -44 18 0 30 39 16 53 -6 6 -11 20 -11 30 0 17 5 19 35 14 19 -3 37 -1
40 4 10 15 33 10 54 -12z m1491 -16 c0 -2 -5 -14 -11 -25 -9 -17 -13 -18 -20
-7 -6 10 -9 4 -9 -18 0 -42 -166 -368 -251 -493 -66 -98 -135 -187 -194 -252
-18 -21 -36 -46 -40 -57 -3 -11 -30 -38 -60 -60 -30 -23 -55 -46 -55 -51 0 -6
-9 -10 -20 -10 -27 0 -25 26 4 45 13 9 27 28 31 42 3 15 19 43 34 62 16 20 38
56 49 81 11 25 29 58 39 75 115 189 198 323 210 336 25 30 123 183 139 219 9
19 28 54 43 76 24 39 29 42 69 41 23 0 42 -2 42 -4z m-1930 -53 c20 -22 37
-30 62 -30 24 0 43 -10 73 -37 22 -21 47 -36 55 -35 25 3 47 -15 33 -29 -8 -8
-20 -8 -45 0 -28 9 -40 8 -67 -5 -21 -11 -44 -14 -67 -10 -30 6 -34 4 -34 -14
0 -13 10 -25 28 -32 15 -7 28 -13 30 -14 5 -3 -33 -64 -40 -64 -8 0 -21 14
-42 44 -13 19 -14 19 -26 -4 -8 -15 -9 -25 -3 -27 27 -9 46 -31 40 -47 -10
-25 -45 -19 -61 12 l-15 27 -1 -28 c0 -22 -4 -28 -17 -25 -18 3 -32 48 -16 48
4 0 14 4 21 9 22 14 -23 91 -71 123 -48 30 -57 28 -57 -13 0 -30 -14 -39 -23
-15 -3 7 -9 34 -12 60 -7 44 -6 46 18 46 25 0 37 16 37 51 0 23 23 25 44 3 21
-20 20 -29 -5 -45 -27 -18 -16 -45 25 -64 17 -8 39 -20 48 -27 14 -10 20 -10
29 -1 10 10 7 18 -14 37 -32 30 -37 76 -8 76 10 0 21 -7 25 -15 3 -8 12 -15
21 -15 19 0 19 9 0 30 -13 14 -11 60 2 60 3 0 18 -13 33 -30z m465 -210 c20
16 38 2 31 -25 -5 -18 0 -24 27 -31 37 -11 51 -44 18 -44 -15 0 -21 -6 -21
-22 0 -24 -36 -68 -57 -68 -7 0 -22 5 -32 12 -15 9 -26 9 -48 -1 l-28 -13 39
-20 c21 -11 40 -28 43 -38 3 -10 11 -21 19 -24 19 -7 45 3 43 18 -5 44 0 49
46 44 50 -6 57 3 25 37 -23 24 -13 50 16 41 11 -3 42 -27 69 -52 49 -45 49
-47 28 -57 -15 -6 -23 -19 -23 -34 0 -17 -6 -23 -21 -23 -12 0 -27 -7 -33 -16
-11 -14 -17 -13 -64 5 l-52 21 0 -30 c0 -25 -4 -30 -23 -30 -26 0 -52 17 -60
40 -3 8 -6 3 -6 -12 -1 -32 -16 -35 -50 -12 -21 15 -23 22 -17 65 4 29 2 50
-4 54 -5 3 -10 28 -10 54 0 31 -5 53 -15 61 -20 17 -19 24 8 35 12 6 23 19 25
31 2 12 17 28 35 36 28 14 35 14 55 1 18 -11 27 -12 37 -3z m190 4 c16 -8 39
-13 50 -10 11 3 40 -2 64 -10 24 -8 63 -17 88 -21 34 -5 47 -11 53 -29 5 -13
21 -26 36 -30 23 -6 25 -10 20 -40 -4 -21 -1 -47 9 -71 15 -36 15 -39 -3 -53
-17 -14 -17 -16 10 -38 23 -19 28 -32 28 -66 0 -23 -6 -51 -14 -61 -10 -14
-11 -25 -4 -39 12 -22 -4 -36 -41 -36 -21 0 -23 -3 -17 -31 9 -44 -8 -69 -47
-69 -18 0 -39 -6 -46 -12 -10 -11 -12 -9 -9 7 2 12 13 21 28 23 38 6 51 21 40
43 -7 13 -7 25 2 39 10 16 10 24 0 40 -6 11 -12 29 -12 39 0 11 -5 31 -11 45
-10 22 -8 29 20 61 17 20 29 40 26 45 -3 5 -30 14 -60 20 -68 14 -77 26 -25
34 40 6 65 26 33 26 -10 0 -39 11 -65 25 -58 31 -58 31 -58 0 0 -49 -29 -41
-93 24 l-62 63 23 15 23 16 -22 23 c-11 12 -18 27 -14 33 8 14 14 14 50 -5z
m-583 -104 c2 -19 9 -25 28 -25 19 0 24 5 22 19 -4 19 8 16 40 -11 14 -13 20
-12 42 2 14 9 30 14 36 10 19 -12 10 -36 -25 -69 -25 -24 -35 -42 -35 -62 l1
-29 22 28 c26 32 30 32 52 11 13 -13 13 -19 3 -31 -15 -18 -20 -113 -7 -129
12 -15 -10 -74 -28 -74 -8 0 -23 4 -33 10 -15 8 -19 5 -24 -15 -4 -15 -16 -27
-32 -31 -34 -9 -25 -27 17 -36 51 -11 88 -1 95 28 9 36 24 18 24 -29 -1 -29
-8 -51 -24 -70 l-23 -29 -21 26 c-22 29 -32 32 -50 14 -9 -9 -5 -20 20 -47 18
-19 25 -29 16 -22 -24 18 -32 10 -74 -75 -35 -72 -36 -77 -24 -117 29 -97 53
-121 145 -143 28 -7 61 47 46 75 -14 25 15 54 30 30 5 -8 7 -22 5 -32 -2 -9 4
-27 14 -39 17 -22 17 -24 -1 -49 -11 -16 -22 -53 -25 -88 -4 -34 -13 -66 -20
-72 -8 -7 -14 -31 -14 -58 0 -28 -8 -59 -20 -79 -20 -32 -20 -32 -51 -17 -42
22 -149 133 -149 155 0 10 -9 28 -19 41 -19 23 -20 23 -27 5 -4 -11 -1 -40 6
-65 23 -78 23 -133 0 -237 -12 -54 -26 -153 -31 -219 -13 -169 -26 -256 -54
-365 -13 -52 -28 -113 -32 -134 -8 -37 -11 -40 -43 -40 -38 -1 -26 15 -129
-182 -48 -92 -101 -175 -130 -205 -9 -10 -36 -43 -61 -75 -48 -62 -223 -244
-234 -244 -30 0 -196 -162 -196 -192 0 -10 -7 -18 -16 -18 -14 0 -15 2 -3 17
28 33 -53 -18 -105 -67 -48 -45 -142 -102 -135 -82 6 15 127 120 211 182 40
30 146 128 235 217 170 169 307 341 381 474 23 42 60 97 83 122 41 47 74 118
89 192 13 62 30 182 30 213 0 15 14 47 30 72 23 34 30 56 30 93 0 58 -16 67
-65 37 -34 -21 -35 -21 -35 -2 0 11 4 42 10 69 58 295 65 356 51 508 -12 134
-4 159 29 101 12 -20 26 -36 31 -36 14 0 12 5 -28 82 -36 68 -38 76 -37 160 1
130 33 154 92 68 12 -18 25 -51 29 -72 l6 -39 15 30 c13 29 12 36 -22 121 -28
70 -36 104 -36 153 0 35 4 67 10 73 5 5 11 56 12 114 3 95 2 107 -17 122 -17
15 -18 19 -5 28 22 14 50 12 56 -5 7 -16 34 -21 34 -5 0 5 -9 14 -20 20 -18
10 -19 13 -5 26 8 9 15 25 15 37 0 28 17 10 22 -23z m-274 -25 c12 -14 26 -25
31 -25 5 0 13 -14 16 -31 l7 -32 20 32 c25 39 35 39 40 0 4 -26 -1 -38 -29
-66 -18 -19 -33 -41 -33 -48 0 -7 16 -22 35 -34 34 -20 45 -44 26 -56 -16 -9
-58 16 -70 42 -6 13 -15 22 -20 18 -5 -3 -12 4 -16 15 -3 11 -11 20 -16 20
-12 0 -12 -17 1 -25 6 -4 9 -18 8 -32 -2 -19 2 -27 16 -29 18 -3 36 -20 36
-36 0 -11 -18 -10 -41 2 -15 9 -21 7 -25 -5 -13 -33 45 -62 63 -31 11 18 50
29 58 16 10 -17 -13 -39 -36 -33 -12 4 -25 -1 -33 -12 -20 -27 -55 -10 -77 38
-10 23 -19 50 -19 60 0 10 -9 36 -20 57 -16 32 -19 50 -14 96 l7 56 33 -4 c33
-4 47 13 24 27 -12 7 -13 45 -2 45 5 0 18 -11 30 -25z m-225 -217 c2 -7 1 -22
-4 -33 -4 -11 -8 -28 -8 -38 -1 -21 47 -69 61 -61 5 3 20 -1 33 -10 20 -13 22
-21 18 -57 -5 -35 -2 -44 21 -64 14 -12 26 -29 26 -36 0 -8 7 -23 15 -33 25
-33 19 -104 -12 -148 -22 -32 -27 -52 -30 -116 -4 -83 -14 -147 -45 -287 -31
-143 -142 -506 -188 -620 -15 -38 -33 -97 -39 -129 -6 -33 -13 -61 -15 -63 -2
-3 -12 7 -22 21 -16 26 -18 26 -42 10 -29 -19 -28 -20 -107 98 -24 36 -54 69
-65 73 -11 3 -20 11 -20 17 0 6 -6 6 -15 -2 -25 -21 -18 -73 13 -107 16 -16
41 -56 57 -89 15 -32 36 -71 46 -86 23 -32 24 -67 3 -75 -19 -7 -34 13 -34 48
0 15 -7 32 -16 40 -32 26 -74 98 -74 127 0 21 -6 31 -19 35 -20 5 -51 87 -51
134 0 12 -9 46 -20 75 -46 121 -73 298 -71 476 1 128 21 304 41 367 9 27 9 25
8 -20 0 -27 0 -68 2 -90 2 -38 3 -37 16 25 23 105 43 159 98 259 31 58 71 113
101 143 66 64 81 63 54 -4 -12 -29 -31 -82 -44 -118 -12 -36 -35 -99 -50 -140
-59 -161 -107 -392 -110 -532 -2 -60 0 -108 4 -108 4 0 12 -14 18 -31 7 -17
17 -28 22 -24 6 3 22 45 37 93 14 48 41 137 60 197 18 61 37 128 42 150 6 22
21 74 35 115 14 41 42 125 62 185 31 89 38 129 42 210 l4 100 72 68 c39 37 74
67 78 67 4 0 9 -6 12 -12z m1061 -52 c-4 -16 -1 -25 11 -30 14 -5 16 -2 11 19
-6 23 -4 25 29 25 41 0 42 -6 14 -56 -17 -32 -19 -41 -8 -60 9 -18 9 -27 1
-37 -18 -21 -1 -29 19 -11 17 15 19 15 30 -9 6 -14 21 -30 33 -36 18 -10 18
-11 1 -5 -50 17 -60 11 -65 -37 -3 -26 -12 -54 -19 -63 -9 -11 -11 -29 -7 -61
6 -36 4 -45 -7 -45 -20 0 -34 42 -42 124 -4 38 -13 83 -20 100 -18 43 -45 139
-45 161 0 21 27 44 53 45 13 0 16 -5 11 -24z m6275 -226 c12 -21 31 -65 42
-97 31 -88 119 -385 119 -402 0 -7 9 -44 19 -80 27 -92 55 -503 41 -619 -13
-119 -55 -240 -94 -274 l-31 -27 -175 -1 c-139 0 -191 4 -255 19 -44 11 -98
24 -120 28 -37 8 -40 12 -56 63 -21 67 -16 96 27 180 18 36 38 92 44 125 5 33
16 78 24 100 31 91 56 188 80 320 32 168 48 196 41 70 -13 -242 -14 -285 -6
-285 11 0 21 25 21 53 0 12 8 38 18 57 10 19 29 80 41 135 39 168 39 168 40
90 0 -38 -6 -110 -14 -160 -8 -49 -12 -91 -10 -93 9 -9 24 11 30 41 4 17 15
61 26 97 65 218 98 411 99 577 0 133 11 151 49 83z m-524 -320 c2 -80 6 -167
9 -195 4 -36 3 -43 -3 -25 -5 14 -9 37 -10 51 -1 30 -29 47 -38 24 -3 -9 -2
-40 2 -70 5 -46 10 -55 26 -55 32 0 39 -41 39 -218 -1 -197 -31 -385 -69 -426
-11 -12 -21 -27 -21 -33 0 -7 -12 -21 -26 -32 -35 -28 -52 -17 -106 64 -24 36
-46 65 -50 65 -11 0 40 -109 68 -145 l24 -32 -77 -57 c-107 -77 -115 -76 -133
22 -8 42 -14 104 -14 137 0 53 5 69 47 141 26 45 47 86 47 91 0 6 6 16 14 22
8 7 17 28 21 48 3 20 15 52 26 72 10 20 19 43 19 52 0 8 11 47 24 87 13 39 36
122 51 184 29 125 35 148 63 228 11 31 23 85 26 120 4 36 10 79 13 95 6 28 7
26 15 -20 5 -27 11 -115 13 -195z m-5027 116 c38 -20 65 -53 58 -71 -3 -8 -19
-18 -37 -22 -19 -3 -34 -14 -39 -28 -5 -13 -22 -32 -39 -45 -17 -12 -31 -28
-31 -35 0 -8 -11 -17 -25 -21 -52 -13 -16 -31 48 -25 28 3 19 -26 -12 -39 -54
-22 -99 -29 -104 -15 -5 11 -22 197 -22 235 0 9 10 15 25 16 13 1 26 7 28 13
2 6 11 11 20 11 10 0 31 9 47 20 36 24 47 24 83 6z m-1535 -401 c4 -8 4 -24 1
-37 -2 -13 -6 -54 -8 -92 -3 -38 -10 -74 -15 -79 -6 -6 -11 -32 -11 -57 0 -43
-19 -129 -40 -175 -4 -11 -20 -46 -34 -77 -13 -32 -36 -72 -49 -90 -14 -18
-36 -56 -51 -85 -14 -28 -34 -54 -43 -57 -10 -3 -26 -19 -35 -36 -9 -16 -22
-30 -28 -30 -18 0 -11 26 16 55 14 15 23 34 20 42 -4 9 1 17 14 20 11 3 18 9
15 13 -2 4 4 15 15 25 11 10 20 25 20 34 0 9 6 28 14 43 12 23 12 27 0 32 -12
5 -12 9 -2 25 9 15 9 25 0 46 -10 21 -10 41 0 93 6 37 14 59 16 49 2 -10 8
-14 15 -10 7 4 6 -1 -2 -10 -12 -15 -10 -19 10 -36 22 -18 25 -19 37 -4 17 23
15 52 -4 60 -14 5 -12 8 7 19 16 8 30 9 41 3 15 -8 18 -5 18 16 0 14 -4 25
-10 25 -5 0 -10 7 -10 15 0 8 9 15 20 15 23 0 25 8 5 34 -17 23 -13 152 6 188
20 38 43 48 52 23z m621 -116 c3 -17 6 -57 7 -88 0 -31 6 -90 12 -131 12 -73
13 -75 42 -78 17 -2 46 -7 66 -13 33 -8 37 -13 42 -53 4 -30 2 -54 -8 -73 -8
-15 -15 -37 -15 -48 0 -11 -10 -40 -21 -65 -17 -37 -21 -65 -20 -153 0 -126 5
-155 37 -219 20 -39 35 -54 82 -78 31 -16 75 -45 97 -64 37 -33 39 -36 22 -48
-18 -13 -17 -15 3 -33 12 -11 36 -24 53 -30 22 -7 33 -17 35 -32 5 -35 -30
-29 -95 15 -30 20 -84 55 -119 77 -86 54 -203 162 -247 227 -55 84 -70 157
-67 328 4 172 3 301 -2 390 -3 61 0 69 37 132 22 37 43 67 46 68 4 0 9 -14 13
-31z m4882 -889 c7 0 29 16 48 34 l34 35 7 -50 c7 -49 -1 -137 -13 -154 -4 -6
-31 -30 -61 -55 -40 -32 -66 -46 -100 -51 -25 -3 -54 -10 -63 -14 -25 -10 -24
27 2 84 11 24 20 53 20 66 0 12 6 27 13 33 12 11 47 81 62 127 6 17 9 15 22
-17 8 -21 21 -38 29 -38z m-6354 -457 c-16 -32 -37 -80 -46 -108 -9 -27 -34
-79 -56 -115 -21 -36 -48 -81 -59 -101 -11 -19 -27 -42 -37 -50 -15 -13 -16
-12 -9 11 4 14 12 30 17 37 5 7 12 27 15 44 6 38 101 208 171 307 35 48 36 39
4 -25z m6385 -222 c73 -34 101 -124 63 -204 -29 -62 -62 -87 -114 -87 -84 0
-116 39 -130 163 -3 26 -8 52 -11 57 -4 6 -3 19 0 31 6 18 12 20 46 14 32 -6
40 -4 46 12 14 38 39 41 100 14z m-6227 -5 c0 -4 -79 -72 -227 -195 -35 -29
-67 -51 -69 -48 -14 14 41 151 80 201 13 16 21 17 69 9 49 -9 59 -7 94 14 36
22 53 28 53 19z m7448 -32 c37 -25 28 -56 -21 -76 -55 -23 -103 -23 -147 1
-19 11 -48 26 -65 34 -16 7 -36 21 -42 29 -11 13 -4 15 59 16 39 1 73 4 76 7
12 12 119 4 140 -11z m-6764 -325 c14 -11 26 -29 26 -40 0 -39 -76 -159 -101
-159 -5 0 -9 29 -9 64 0 56 -3 67 -22 80 -33 24 -40 19 -23 -14 25 -48 31
-144 11 -175 -20 -30 -30 -31 -89 -5 -52 23 -77 52 -77 89 0 27 73 104 110
116 12 4 41 20 64 36 49 34 74 36 110 8z m5559 -27 c16 -16 22 -37 25 -86 4
-58 2 -65 -17 -71 -12 -3 -21 -11 -21 -16 0 -5 -4 -9 -10 -9 -5 0 -10 11 -10
25 0 18 -4 23 -15 19 -10 -4 -15 -20 -15 -49 0 -38 -3 -44 -29 -55 -25 -10
-42 -9 -98 5 -37 9 -80 25 -95 36 -15 10 -34 19 -41 19 -40 0 -54 78 -23 125
14 21 24 25 70 25 40 0 57 5 71 20 40 44 168 52 208 12z m1158 -8 c13 -14 54
-50 91 -81 90 -73 174 -206 96 -151 -101 71 -238 199 -238 224 0 41 17 44 51
8z m-4521 -809 c0 -20 10 -52 23 -73 49 -79 57 -155 32 -307 -8 -49 -15 -114
-15 -142 0 -40 -4 -53 -15 -53 -10 0 -15 10 -15 28 -1 29 -25 70 -36 59 -4 -4
-1 -13 5 -21 22 -26 3 -53 -52 -73 l-52 -20 77 1 c61 1 81 -3 95 -16 34 -35 1
-39 -177 -20 -98 11 -118 16 -132 35 -23 29 -22 43 6 97 63 122 84 170 100
230 10 36 28 97 41 135 12 39 25 85 29 104 8 44 32 71 63 71 20 0 23 -5 23
-35z m3905 -756 c122 -122 153 -152 247 -230 40 -33 82 -68 93 -77 11 -10 49
-42 85 -71 36 -30 71 -64 79 -75 8 -12 20 -24 25 -28 20 -14 -25 -8 -54 7 -80
42 -341 258 -442 367 -111 120 -138 152 -139 163 0 6 -2 18 -4 28 -2 9 0 17 3
17 4 0 52 -45 107 -101z m-3878 75 c30 -8 44 -56 47 -153 l2 -78 -58 -23 -57
-23 -93 18 c-136 25 -133 27 -133 -80 -1 -79 -5 -96 -29 -142 -16 -29 -29 -66
-30 -83 -1 -35 -31 -42 -41 -10 -9 27 -27 25 -23 -2 2 -18 -2 -23 -21 -23 -19
0 -25 6 -28 29 -2 16 -9 38 -14 48 -7 14 -6 18 6 18 13 0 15 7 10 37 -3 21
-12 47 -19 58 -10 15 -11 26 -4 39 5 9 10 37 10 61 0 48 30 85 71 85 19 0 22
6 24 42 1 36 8 48 67 107 l66 66 73 6 c108 9 150 9 174 3z m-3617 -250 c0 -7
-39 -63 -61 -87 -11 -12 -19 -15 -24 -8 -10 17 -23 4 -40 -36 -12 -27 -19 -34
-35 -30 -14 3 -25 -3 -37 -23 -10 -15 -41 -53 -70 -84 -41 -44 -59 -56 -82
-56 -16 0 -32 3 -34 8 -9 15 22 68 59 102 91 83 176 149 218 169 24 12 50 29
56 37 12 14 50 20 50 8z"/>
<path d="M6594 4135 c-9 -35 11 -78 57 -124 43 -42 109 -69 193 -77 28 -3 78
-12 112 -20 34 -8 76 -14 95 -14 19 1 45 0 59 -2 22 -3 25 1 28 34 2 26 11 44
29 58 18 14 23 24 16 31 -7 7 -17 3 -30 -15 -28 -35 -112 -66 -179 -66 -74 0
-186 26 -226 54 -25 16 -36 34 -45 70 -8 32 -9 55 -3 67 9 16 6 17 -24 12 -18
-3 -43 0 -54 6 -19 10 -22 8 -28 -14z"/>
<path d="M4956 700 c-27 -29 -27 -31 -12 -55 24 -36 155 -146 228 -190 35 -21
77 -50 93 -65 17 -15 42 -30 57 -34 15 -3 30 -15 33 -26 4 -14 15 -20 35 -20
19 0 33 -7 39 -19 12 -22 118 -84 130 -77 4 3 13 -6 19 -19 8 -18 20 -25 39
-25 22 -1 34 -10 55 -45 22 -37 32 -45 57 -45 35 0 49 15 21 23 -13 3 -18 11
-14 20 3 9 -11 32 -36 58 -23 24 -56 59 -72 78 -17 19 -43 44 -59 55 -15 12
-62 48 -104 81 -43 33 -84 65 -93 70 -163 104 -167 108 -132 101 30 -6 33 -5
20 8 -8 8 -32 19 -53 25 -34 9 -38 8 -33 -6 4 -10 -5 -7 -28 11 -19 14 -42 26
-50 26 -9 0 -33 9 -53 20 -21 11 -45 20 -53 20 -8 1 -2 8 14 17 28 15 29 16
11 29 -25 19 -26 18 -59 -16z"/>
<path d="M7852 368 c-7 -7 -12 -30 -12 -52 1 -38 2 -40 15 -22 19 25 33 11 16
-16 -11 -17 -11 -22 1 -29 7 -5 16 -9 20 -9 4 0 18 -10 31 -22 46 -44 89 -78
99 -78 13 0 0 52 -15 62 -7 4 -8 8 -3 8 5 0 2 8 -6 18 -8 9 -30 45 -49 80 -18
34 -39 62 -45 62 -7 0 -18 2 -26 5 -7 3 -19 0 -26 -7z"/>
<path d="M5670 360 c-21 -13 28 -62 96 -94 30 -14 86 -56 125 -93 39 -38 82
-74 95 -81 13 -7 28 -21 34 -32 11 -21 50 -28 50 -10 0 18 -45 80 -57 80 -7 0
-13 4 -13 8 0 28 -160 156 -249 202 -69 34 -62 32 -81 20z"/>
<path d="M1334 4055 c4 -86 23 -154 80 -280 30 -67 36 -75 37 -50 1 29 1 29
14 -10 18 -56 35 -84 82 -134 23 -24 54 -68 68 -98 25 -48 45 -74 45 -58 0 3
-21 47 -46 98 -49 98 -79 138 -98 131 -6 -2 -12 6 -12 18 -2 29 -53 108 -70
108 -6 0 -15 16 -18 35 -4 19 -18 58 -32 85 -14 29 -31 89 -39 142 l-14 93 3
-80z"/>
<path d="M7401 7941 c-9 -6 -10 -11 -2 -15 15 -10 69 -124 77 -164 4 -21 11
-31 19 -28 7 2 21 -4 31 -15 23 -25 69 -27 59 -1 -5 9 -13 42 -19 72 -17 88
-118 180 -165 151z"/>
<path d="M1883 6962 c-33 -41 -93 -153 -93 -174 0 -7 -11 -36 -24 -65 -21 -44
-23 -57 -15 -94 12 -51 -1 -71 -29 -46 -16 14 -27 16 -71 7 -60 -11 -94 -27
-86 -40 4 -6 28 -20 56 -31 70 -30 169 -141 169 -190 0 -20 -25 -7 -75 39 -72
64 -158 116 -208 124 -73 11 -137 29 -137 38 0 5 8 14 18 19 34 20 -103 13
-151 -8 -50 -22 -67 -43 -59 -75 6 -25 30 -61 40 -61 4 0 6 -5 4 -12 -1 -7 3
-10 10 -8 7 3 30 -13 52 -35 38 -40 155 -101 298 -157 85 -33 77 -52 -14 -33
-87 17 -149 38 -178 59 -47 34 -63 2 -39 -82 15 -54 39 -74 98 -82 28 -4 53
-11 57 -16 8 -13 -56 -11 -171 6 -55 8 -107 15 -114 15 -27 0 2 -17 57 -35 43
-14 73 -16 160 -10 82 5 117 3 152 -8 25 -8 70 -22 101 -31 31 -9 69 -26 84
-38 l28 -22 -25 45 c-82 142 -6 337 179 455 80 51 97 56 149 43 43 -11 46 -10
104 27 60 39 72 62 45 84 -23 19 -49 8 -55 -23 -3 -17 -17 -36 -36 -47 -27
-17 -33 -18 -50 -6 -18 14 -18 15 10 45 17 17 36 31 43 31 7 0 13 5 13 10 0
19 -34 10 -109 -32 -81 -44 -199 -88 -217 -81 -25 9 -63 100 -70 165 -5 53 -2
78 16 134 24 75 65 144 85 144 15 0 25 -43 26 -119 l2 -56 7 45 c5 25 6 75 3
111 -4 41 -1 74 6 87 20 38 -12 26 -46 -16z"/>
<path d="M1132 5690 c-35 -21 -55 -59 -67 -122 -6 -33 -4 -40 20 -60 15 -13
45 -38 66 -56 43 -38 63 -35 54 8 -6 25 -3 29 30 40 19 6 33 16 30 21 -3 4 10
8 30 7 26 -1 41 -8 53 -26 9 -13 25 -32 35 -43 9 -10 17 -26 17 -34 0 -21 -44
-47 -75 -43 -37 4 -58 -27 -32 -46 15 -12 23 -11 54 5 20 10 44 27 54 37 10
11 38 22 68 26 40 5 51 11 51 25 0 26 29 80 51 94 10 6 19 17 19 24 0 16 1 16
-48 -1 -34 -12 -43 -12 -68 0 -25 13 -30 13 -40 0 -16 -22 -21 -20 -57 16 -22
22 -32 41 -32 62 0 26 -4 31 -27 34 -32 4 -37 -14 -11 -33 24 -18 9 -42 -29
-47 -18 -3 -49 -12 -68 -21 -31 -13 -39 -13 -69 -1 -32 14 -33 16 -27 56 8 50
18 64 52 72 14 4 22 11 19 16 -9 14 -16 13 -53 -10z"/>
</g>
</svg>
